<svg xmlns="http://www.w3.org/2000/svg" viewBox="0 0 1200 630" role="img" aria-labelledby="title desc">
  <title id="title">thinkMern MERN Interview Prep</title>
  <desc id="desc">Social preview for thinkMern interview preparation</desc>
  <defs>
    <linearGradient id="bg" x1="0" y1="0" x2="1" y2="1">
      <stop offset="0" stop-color="#071B45"/>
      <stop offset="0.58" stop-color="#0C1222"/>
      <stop offset="1" stop-color="#0F766E"/>
    </linearGradient>
    <radialGradient id="glow" cx="82%" cy="18%" r="45%">
      <stop offset="0" stop-color="#08C999" stop-opacity="0.38"/>
      <stop offset="1" stop-color="#08C999" stop-opacity="0"/>
    </radialGradient>
  </defs>
  <rect width="1200" height="630" fill="url(#bg)"/>
  <rect width="1200" height="630" fill="url(#glow)"/>
  <circle cx="996" cy="92" r="210" fill="#08C999" opacity="0.12"/>
  <circle cx="1058" cy="512" r="170" fill="#F97316" opacity="0.14"/>
  <g transform="translate(92 92)">
    <rect width="118" height="118" rx="28" fill="#F7F3EB"/>
    <path d="M32 76V43l27-16 27 16v33L59 92 32 76Z" fill="none" stroke="#071B45" stroke-width="7" stroke-linejoin="round"/>
    <circle cx="59" cy="59" r="12" fill="#08C999"/>
  </g>
  <text x="92" y="292" font-family="Sora, Arial, sans-serif" font-size="88" font-weight="800" fill="#F7F3EB">
    think<tspan fill="#08C999">Mern</tspan>
  </text>
  <text x="96" y="372" font-family="Sora, Arial, sans-serif" font-size="38" font-weight="600" fill="#F7F3EB">
    MERN Interview Prep
  </text>
  <text x="96" y="432" font-family="IBM Plex Mono, Consolas, monospace" font-size="24" fill="#CBD5E1">
    JavaScript / React / Node.js / DSA
  </text>
  <g transform="translate(96 486)" font-family="Sora, Arial, sans-serif" font-size="24" font-weight="600">
    <rect width="188" height="54" rx="18" fill="#08C999"/>
    <text x="24" y="36" fill="#071B45">Learn</text>
    <rect x="208" width="188" height="54" rx="18" fill="#F7F3EB" opacity="0.96"/>
    <text x="232" y="36" fill="#071B45">Practice</text>
    <rect x="416" width="188" height="54" rx="18" fill="#F7F3EB" opacity="0.18"/>
    <text x="440" y="36" fill="#F7F3EB">Mock</text>
  </g>
</svg>
